<svg width="348" height="146" xmlns="http://www.w3.org/2000/svg"><g transform="translate(7)" fill="none" fill-rule="evenodd"><g fill="#FFF" fill-rule="nonzero"><path d="M88.17 53.1a10.85 10.85 0 0 1 5.2-9.11 11.19 11.19 0 0 0-8.8-4.74c-3.71-.39-7.3 2.2-9.2 2.2-1.92 0-4.82-2.16-7.95-2.1-4.12.13-7.86 2.4-9.87 6-4.26 7.34-1.08 18.14 3 24.09 2.05 2.9 4.44 6.16 7.57 6.04 3.06-.13 4.2-1.94 7.9-1.94 3.65 0 4.72 1.94 7.91 1.87 3.29-.06 5.35-2.93 7.33-5.86a24.02 24.02 0 0 0 3.35-6.8 10.5 10.5 0 0 1-6.44-9.65zM82.14 35.34a10.66 10.66 0 0 0 2.46-7.66 10.95 10.95 0 0 0-7.08 3.64A10.15 10.15 0 0 0 75 38.7a9.06 9.06 0 0 0 7.14-3.36z"/><g><path d="M126.85 68.11H116.4l-2.5 7.37h-4.43l9.9-27.26h4.59l9.89 27.26h-4.5l-2.5-7.37zm-9.37-3.4h8.28l-4.08-11.95h-.11l-4.09 11.95zM155.2 65.55c0 6.17-3.31 10.14-8.33 10.14a6.78 6.78 0 0 1-6.28-3.48h-.1v9.85h-4.1V55.6h3.97v3.3h.08a7.1 7.1 0 0 1 6.36-3.51c5.07 0 8.4 3.99 8.4 10.15zm-4.2 0c0-4.03-2.1-6.67-5.28-6.67-3.14 0-5.24 2.7-5.24 6.67 0 4 2.1 6.68 5.24 6.68 3.18 0 5.27-2.62 5.27-6.68zM177.19 65.55c0 6.17-3.32 10.14-8.34 10.14a6.78 6.78 0 0 1-6.28-3.48h-.1v9.85h-4.1V55.6h3.97v3.3h.08a7.1 7.1 0 0 1 6.36-3.51c5.07 0 8.4 3.99 8.4 10.15zm-4.21 0c0-4.03-2.1-6.67-5.28-6.67-3.13 0-5.24 2.7-5.24 6.67 0 4 2.1 6.68 5.24 6.68 3.19 0 5.28-2.62 5.28-6.68zM191.72 67.89c.3 2.7 2.94 4.48 6.55 4.48 3.45 0 5.94-1.78 5.94-4.22 0-2.11-1.5-3.38-5.05-4.25l-3.55-.85c-5.03-1.2-7.37-3.55-7.37-7.35 0-4.7 4.12-7.93 9.97-7.93 5.79 0 9.76 3.23 9.89 7.93h-4.14c-.25-2.72-2.5-4.36-5.8-4.36-3.31 0-5.57 1.66-5.57 4.08 0 1.93 1.44 3.06 4.97 3.93l3.02.74c5.62 1.32 7.96 3.57 7.96 7.55 0 5.1-4.08 8.3-10.58 8.3-6.07 0-10.17-3.12-10.44-8.05h4.2zM217.38 50.9v4.7h3.8v3.24h-3.8V69.8c0 1.7.77 2.49 2.43 2.49.46 0 .9-.04 1.35-.1v3.22c-.75.14-1.51.2-2.27.19-4.05 0-5.62-1.52-5.62-5.37v-11.4h-2.9v-3.22h2.9v-4.7h4.11zM223.38 65.55c0-6.26 3.7-10.19 9.47-10.19 5.8 0 9.48 3.93 9.48 10.19 0 6.27-3.67 10.18-9.48 10.18-5.8 0-9.47-3.91-9.47-10.18zm14.77 0c0-4.3-1.97-6.83-5.3-6.83-3.32 0-5.3 2.56-5.3 6.83 0 4.3 1.98 6.82 5.3 6.82 3.33 0 5.3-2.52 5.3-6.82zM245.7 55.6h3.92V59h.1a4.76 4.76 0 0 1 4.8-3.59c.47 0 .94.05 1.4.15v3.82a5.76 5.76 0 0 0-1.84-.25 4.14 4.14 0 0 0-4.27 4.57v11.8h-4.1V55.6zM274.82 69.65c-.55 3.6-4.08 6.08-8.6 6.08-5.8 0-9.41-3.87-9.41-10.09 0-6.23 3.62-10.28 9.24-10.28 5.53 0 9 3.78 9 9.8v1.4h-14.1v.25a5.16 5.16 0 0 0 5.37 5.63 4.52 4.52 0 0 0 4.61-2.8h3.9zm-13.86-5.94h9.99a4.77 4.77 0 0 0-4.9-5.04 5.07 5.07 0 0 0-5.09 5.04z"/></g></g><g fill="#FFF" fill-rule="nonzero"><path d="M116.97 27.7a5.84 5.84 0 0 1 6.2 6.51c0 4.19-2.28 6.6-6.2 6.6h-4.75V27.7h4.75zm-2.7 11.25h2.47a4.15 4.15 0 0 0 4.34-4.71 4.12 4.12 0 0 0-4.34-4.69h-2.48v9.4zM125.47 35.85a4.73 4.73 0 1 1 9.37 0 4.73 4.73 0 1 1-9.37 0zm7.36 0c0-2.14-.97-3.4-2.67-3.4s-2.66 1.26-2.66 3.4c0 2.16.96 3.4 2.66 3.4 1.7 0 2.67-1.24 2.67-3.4zM147.3 40.8h-2.04l-2.05-7.28h-.16l-2.04 7.28H139l-2.74-9.88h1.99l1.78 7.54h.14l2.04-7.54h1.89l2.04 7.54h.15l1.77-7.54h1.96zM152.33 30.92h1.88v1.57h.15a2.98 2.98 0 0 1 2.96-1.76 3.24 3.24 0 0 1 3.44 3.67v6.4h-1.96v-5.9c0-1.6-.7-2.39-2.14-2.39a2.28 2.28 0 0 0-2.37 2.5v5.8h-1.96v-9.9zM163.89 27.06h1.96V40.8h-1.96zM168.57 35.85a4.73 4.73 0 1 1 9.37 0 4.73 4.73 0 1 1-9.37 0zm7.35 0c0-2.14-.96-3.4-2.66-3.4-1.7 0-2.66 1.26-2.66 3.4 0 2.16.95 3.4 2.66 3.4 1.7 0 2.66-1.24 2.66-3.4zM180 38c0-1.77 1.34-2.8 3.7-2.94l2.69-.16v-.85c0-1.05-.7-1.64-2.03-1.64-1.1 0-1.86.4-2.07 1.1h-1.9c.2-1.7 1.8-2.78 4.06-2.78 2.49 0 3.9 1.23 3.9 3.32v6.75h-1.9v-1.39h-.15a3.35 3.35 0 0 1-2.98 1.55 3.01 3.01 0 0 1-3.32-2.95zm6.39-.84v-.83l-2.43.16c-1.36.09-1.98.55-1.98 1.42 0 .9.77 1.41 1.84 1.41a2.35 2.35 0 0 0 2.57-2.16zM190.92 35.85c0-3.12 1.61-5.1 4.12-5.1a3.28 3.28 0 0 1 3.05 1.74h.14v-5.43h1.96V40.8h-1.87v-1.56h-.16a3.45 3.45 0 0 1-3.12 1.72c-2.53 0-4.12-1.97-4.12-5.1zm2.02 0c0 2.1 1 3.36 2.66 3.36 1.65 0 2.67-1.28 2.67-3.35 0-2.06-1.03-3.35-2.67-3.35-1.65 0-2.66 1.27-2.66 3.34zM208.3 35.85a4.73 4.73 0 1 1 9.37 0 4.73 4.73 0 1 1-9.37 0zm7.36 0c0-2.14-.97-3.4-2.67-3.4s-2.66 1.26-2.66 3.4c0 2.16.96 3.4 2.66 3.4 1.7 0 2.67-1.24 2.67-3.4zM220.3 30.92h1.9v1.57h.14a2.98 2.98 0 0 1 2.96-1.76 3.24 3.24 0 0 1 3.44 3.67v6.4h-1.96v-5.9c0-1.6-.7-2.39-2.14-2.39a2.28 2.28 0 0 0-2.38 2.5v5.8h-1.96v-9.9zM239.82 28.46v2.5h2.15v1.64h-2.15v5.09c0 1.03.43 1.49 1.4 1.49.25 0 .5-.02.75-.05v1.63c-.35.06-.71.1-1.07.1-2.18 0-3.05-.77-3.05-2.67V32.6h-1.57v-1.64h1.57v-2.5h1.97zM244.65 27.06h1.94v5.45h.15a3.06 3.06 0 0 1 3.03-1.78 3.28 3.28 0 0 1 3.42 3.69v6.38h-1.96v-5.9c0-1.58-.74-2.38-2.12-2.38a2.33 2.33 0 0 0-2.5 2.5v5.78h-1.96V27.06zM264.62 38.13a4.03 4.03 0 0 1-4.3 2.86 4.52 4.52 0 0 1-4.59-5.1 4.54 4.54 0 0 1 4.58-5.16c2.77 0 4.43 1.87 4.43 4.98v.68h-7.01v.1a2.6 2.6 0 0 0 2.64 2.84c.96.12 1.9-.36 2.37-1.2h1.88zm-6.9-3.18h5.03a2.38 2.38 0 0 0-2.45-2.56 2.55 2.55 0 0 0-2.57 2.56z"/></g></g></svg>