<svg width="82" height="317" xmlns="http://www.w3.org/2000/svg"><g fill-rule="nonzero" fill="none"><path d="M40.7 29.9l24.7 37.4v22.5l10 18.4v11.3l6.2 3.3v73.8l-6.3 12.2v107.7H6.6V208.8L.2 196.6v-73.8l6.4-3.3v-11.3l10.7-18.4V67.3l23.4-37.4zM10 129v61h62v-61H10zm6 75v18h3v-18h-3zm0 25v84h3v-84h-3zm9-25v18h3v-18h-3zm0 25v84h3v-84h-3zm10-25v18h3v-18h-3zm0 25v84h3v-84h-3zm9-25v18h3v-18h-3zm0 25v84h3v-84h-3zm10-25v18h3v-18h-3zm0 25v84h3v-84h-3zm9-25v18h3v-18h-3zm0 25v84h3v-84h-3zM21 89.3h5.5V74l-2.8-5-2.7 5v15.3zm12 0h5.5V74l-2.8-5-2.7 5v15.3zm11 0h5.5V74l-2.8-5-2.7 5v15.3zm11 0h5.5V74l-2.8-5-2.7 5v15.3zM13 118h5.7v-7.3L16 108l-2.9 2.7v7.3zm10 0h5.7v-7.3L26 108l-2.9 2.7v7.3zm10 0h5.7v-7.3L36 108l-2.9 2.7v7.3zm10 0h5.7v-7.3L46 108l-2.9 2.7v7.3zm10 0h5.7v-7.3L56 108l-2.9 2.7v7.3zm11 0h5.7v-7.3L67 108l-2.9 2.7v7.3zm-22.5 67a25.5 25.5 0 1 1 0-51 25.5 25.5 0 0 1 0 51zm1.6-46.5h-3.7v23l3 2.5 13.3-9.6-2.3-3-10.3 7.2v-20z" fill="#fff"/><path d="M7.2 121.5v-35M17.2 97.5v-51M65.2 97.5v-51M41.2 53.5v-51M75.5 121.5v-35" stroke="#fff" stroke-width="4" stroke-linecap="square"/></g></svg>