<svg width="348" height="146" xmlns="http://www.w3.org/2000/svg"><defs><linearGradient x1="90.77%" y1="4.84%" x2="-38.33%" y2="71.97%" id="b"><stop stop-color="#00A0FF" offset="0%"/><stop stop-color="#00A1FF" offset=".7%"/><stop stop-color="#00BEFF" offset="26%"/><stop stop-color="#00D2FF" offset="51.2%"/><stop stop-color="#00DFFF" offset="76%"/><stop stop-color="#00E3FF" offset="100%"/></linearGradient><linearGradient x1="107.72%" y1="49.42%" x2="-130.67%" y2="49.42%" id="c"><stop stop-color="#FFE000" offset="0%"/><stop stop-color="#FFBD00" offset="40.9%"/><stop stop-color="orange" offset="77.5%"/><stop stop-color="#FF9C00" offset="100%"/></linearGradient><linearGradient x1="86.39%" y1="17.81%" x2="-49.89%" y2="194.39%" id="d"><stop stop-color="#FF3A44" offset="0%"/><stop stop-color="#C31162" offset="100%"/></linearGradient><linearGradient x1="-18.58%" y1="-54.53%" x2="42.28%" y2="24.69%" id="e"><stop stop-color="#32A071" offset="0%"/><stop stop-color="#2DA771" offset="6.9%"/><stop stop-color="#15CF74" offset="47.6%"/><stop stop-color="#06E775" offset="80.1%"/><stop stop-color="#00F076" offset="100%"/></linearGradient></defs><g transform="translate(1)" fill-rule="nonzero" fill="none"><path d="M124.93 33.17c0 1.74-.44 3.26-1.54 4.35a6.48 6.48 0 0 1-4.82 1.96c-1.97 0-3.5-.66-4.82-1.96a6.36 6.36 0 0 1-1.98-4.78c0-1.96.66-3.48 1.98-4.78a6.48 6.48 0 0 1 7.45-1.3c.88.43 1.54.86 1.97 1.51l-1.1 1.09c-.87-1.09-1.96-1.52-3.5-1.52-1.32 0-2.63.43-3.5 1.52-1.1.87-1.54 2.17-1.54 3.7 0 1.52.44 2.82 1.53 3.69 1.1.87 2.2 1.52 3.51 1.52 1.54 0 2.63-.43 3.73-1.52a3.58 3.58 0 0 0 1.1-2.6h-4.83V32.3h6.36v.87zM135 27.74h-5.92v4.13h5.49v1.52h-5.49v4.13h5.92v1.74h-7.67V26.22h7.67v1.52zm7.24 11.52h-1.75V27.74h-3.73v-1.52h9.2v1.52h-3.72v11.52zm10.09 0V26.22h1.75v13.04h-1.75zm9.2 0h-1.75V27.74h-3.73v-1.52h9v1.52h-3.73v11.52h.22zm20.83-1.74a6.48 6.48 0 0 1-4.82 1.96c-1.97 0-3.5-.66-4.82-1.96a6.36 6.36 0 0 1-1.98-4.78c0-1.96.66-3.48 1.98-4.78a6.48 6.48 0 0 1 4.82-1.96c1.97 0 3.5.65 4.82 1.96a6.36 6.36 0 0 1 1.98 4.78c0 1.95-.66 3.48-1.98 4.78zm-8.33-1.09a5.2 5.2 0 0 0 3.51 1.52c1.32 0 2.63-.43 3.5-1.52a5.22 5.22 0 0 0 1.54-3.7c0-1.51-.43-2.82-1.53-3.69a5.2 5.2 0 0 0-3.5-1.52c-1.32 0-2.64.44-3.52 1.52a5.22 5.22 0 0 0-1.53 3.7c0 1.52.44 2.82 1.53 3.7zm12.72 2.83V26.22h1.97l6.36 10.21V26.22h1.76v13.04h-1.76l-6.8-10.65v10.65h-1.53z" stroke="#FFF" stroke-width=".73" fill="#FFF"/><path d="M170.32 58.39c-5.27 0-9.43 3.91-9.43 9.34a9.32 9.32 0 0 0 9.43 9.35c5.26 0 9.42-3.91 9.42-9.35 0-5.65-4.16-9.34-9.42-9.34zm0 14.78c-2.85 0-5.27-2.4-5.27-5.65 0-3.26 2.42-5.65 5.27-5.65 2.85 0 5.26 2.17 5.26 5.65 0 3.26-2.41 5.65-5.26 5.65zm-20.4-14.78c-5.26 0-9.42 3.91-9.42 9.34a9.32 9.32 0 0 0 9.42 9.35c5.27 0 9.43-3.91 9.43-9.35 0-5.65-4.16-9.34-9.43-9.34zm0 14.78c-2.85 0-5.26-2.4-5.26-5.65 0-3.26 2.41-5.65 5.26-5.65 2.85 0 5.27 2.17 5.27 5.65 0 3.26-2.42 5.65-5.27 5.65zM125.6 61.2v3.92H135a8.19 8.19 0 0 1-2.19 5 9.75 9.75 0 0 1-7.23 2.82c-5.92 0-10.3-4.56-10.3-10.43a10.3 10.3 0 0 1 10.3-10.44c3.07 0 5.48 1.3 7.23 2.83l2.85-2.83a14.11 14.11 0 0 0-9.86-3.9c-7.9 0-14.7 6.51-14.7 14.34 0 7.82 6.8 14.34 14.7 14.34 4.38 0 7.45-1.3 10.08-4.13 2.63-2.6 3.51-6.3 3.51-9.13 0-.87 0-1.73-.22-2.39h-13.6zm99.54 3.05c-.88-2.18-3.07-5.87-7.9-5.87-4.82 0-8.76 3.7-8.76 9.34a9.13 9.13 0 0 0 9.2 9.35 9 9 0 0 0 7.68-4.13l-3.07-2.17c-1.1 1.52-2.41 2.6-4.6 2.6-2.2 0-3.51-.86-4.6-2.82l12.49-5.22-.44-1.08zm-12.72 3.04c0-3.48 2.85-5.43 4.83-5.43 1.53 0 3.07.86 3.5 1.95l-8.33 3.48zm-10.3 8.91h4.16V49.04h-4.16v27.17zm-6.58-15.87a7.25 7.25 0 0 0-5.04-2.17c-4.6 0-9 4.13-9 9.35a9.04 9.04 0 0 0 9 9.13c2.19 0 3.94-1.09 4.82-2.18h.22v1.3c0 3.49-1.97 5.44-5.04 5.44a4.87 4.87 0 0 1-4.6-3.26l-3.52 1.52a9.04 9.04 0 0 0 8.34 5.44c4.82 0 8.77-2.83 8.77-9.57V58.82h-3.95v1.52zm-4.82 12.83c-2.85 0-5.27-2.4-5.27-5.65 0-3.26 2.42-5.65 5.27-5.65 2.85 0 5.04 2.39 5.04 5.65 0 3.26-2.2 5.65-5.04 5.65zm53.5-24.13h-9.87v27.17h4.17V66h5.7c4.6 0 8.99-3.27 8.99-8.48 0-5.22-4.39-8.48-9-8.48zm.22 13.04h-5.92v-9.34h5.92a4.8 4.8 0 0 1 4.82 4.56c-.22 2.4-1.97 4.78-4.82 4.78zm25.21-3.91c-3.07 0-6.14 1.3-7.24 4.13l3.73 1.52c.88-1.52 2.2-1.95 3.73-1.95 2.2 0 4.17 1.3 4.38 3.47v.22a8.75 8.75 0 0 0-4.16-1.09c-3.95 0-7.9 2.18-7.9 6.09 0 3.7 3.3 6.09 6.8 6.09 2.85 0 4.17-1.3 5.26-2.61h.22v2.17h3.95V65.78c-.44-4.78-4.17-7.61-8.77-7.61zm-.44 15c-1.31 0-3.29-.65-3.29-2.4 0-2.17 2.41-2.82 4.39-2.82 1.75 0 2.63.44 3.73.87a5.1 5.1 0 0 1-4.83 4.35zm23.02-14.35l-4.6 11.74h-.22l-4.82-11.74h-4.39l7.24 16.52-4.17 9.13h4.17l11.18-25.65h-4.39zm-36.83 17.4h4.16V49.03h-4.16v27.17z" fill="#FFF"/><path d="M.88 1.09C.22 1.74 0 2.83 0 4.13v48.04c0 1.3.44 2.4 1.1 3.04l.22.22L28.5 28.48v-.44L.88 1.1z" fill="url(#b)" transform="translate(42.93 26.22)"/><path d="M37.27 37.6l-8.99-8.9v-.66l9-8.91.21.22 10.75 6.08c3.07 1.74 3.07 4.57 0 6.3l-10.97 5.88z" fill="url(#c)" transform="translate(42.93 26.22)"/><path d="M37.5 37.39l-9.22-9.13L.88 55.43c1.1 1.09 2.63 1.09 4.6.22L37.5 37.39" fill="url(#d)" transform="translate(42.93 26.22)"/><path d="M37.5 19.13L5.47 1.09C3.51 0 1.98.22.88 1.3l27.4 26.96 9.21-9.13z" fill="url(#e)" transform="translate(42.93 26.22)"/><path d="M80.2 63.39L48.4 81.2c-1.75 1.09-3.28.87-4.38 0l-.22.22.22.22c1.1.87 2.63 1.08 4.39 0L80.2 63.39z" fill="#000" opacity=".2"/><path d="M43.8 81.21c-.65-.65-.87-1.74-.87-3.04v.22c0 1.3.43 2.39 1.1 3.04v-.22h-.23zM91.16 57.3L80.2 63.39l.22.21 10.74-6.08c1.54-.87 2.2-1.96 2.2-3.05 0 1.1-.88 1.96-2.2 2.83z" fill="#000" opacity=".12"/><path d="M48.4 27.52l42.76 24.13c1.32.87 2.2 1.74 2.2 2.82 0-1.08-.66-2.17-2.2-3.04L48.41 27.3c-3.07-1.74-5.48-.43-5.48 3.05v.21c0-3.26 2.4-4.78 5.48-3.04z" fill="#FFF" opacity=".25"/></g></svg>