<?xml version="1.0" encoding="UTF-8"?>
<svg width="26px" height="22px" viewBox="0 0 26 22" version="1.1" xmlns="http://www.w3.org/2000/svg" xmlns:xlink="http://www.w3.org/1999/xlink">
    <!-- Generator: Sketch 51.3 (57544) - http://www.bohemiancoding.com/sketch -->
    <title>icons8-weibo</title>
    <desc>Created with Sketch.</desc>
    <defs></defs>
    <g id="Page-1" stroke="none" stroke-width="1" fill="none" fill-rule="evenodd">
        <g id="icons8-weibo" fill="#FFFFFF">
            <g id="Shape">
                <path d="M18.6521739,0 C18.2128056,0 17.7888925,0.0452302632 17.3804348,0.119860053 C17.0735393,0.174136368 16.8682065,0.474918053 16.9211957,0.789267947 C16.9741848,1.10587979 17.2678327,1.31620095 17.5747283,1.26192463 C17.9324052,1.19634032 18.2900815,1.15789474 18.6521739,1.15789474 C22.0920519,1.15789474 24.8695652,4.00287858 24.8695652,7.52631579 C24.8695652,8.28844558 24.7326769,9.01665311 24.4898098,9.69962979 C24.4147421,9.89638158 24.4478599,10.1180102 24.578125,10.2808391 C24.7105978,10.4436681 24.9159306,10.5205592 25.1190556,10.4821136 C25.3221806,10.4436681 25.4877717,10.2944079 25.5518001,10.0953947 C25.8366171,9.29481937 26,8.43318242 26,7.52631579 C26,3.376439 22.7036347,0 18.6521739,0 Z M18.6521739,3.47368421 C18.4115151,3.47368421 18.1841033,3.498561 17.9677313,3.53700658 C17.6608357,3.59354426 17.4532947,3.892064 17.5084921,4.20867584 C17.5614813,4.52302632 17.8551292,4.73334689 18.1620247,4.67907058 C18.3276153,4.64967105 18.4909988,4.63157895 18.6521739,4.63157895 C20.2197693,4.63157895 21.4782609,5.92064174 21.4782609,7.52631579 C21.4782609,7.87232716 21.4164402,8.20250837 21.3038382,8.51459689 C21.1978599,8.81537858 21.3502041,9.14782058 21.643852,9.25637321 C21.9375,9.36492584 22.2620586,9.21114295 22.3680368,8.91036184 C22.5203804,8.48067463 22.6086957,8.01480263 22.6086957,7.52631579 C22.6086957,5.29420216 20.831352,3.47368421 18.6521739,3.47368421 Z M10.8384849,3.70888158 C9.02360748,3.67269737 6.28583574,5.14041926 3.846128,7.59189953 C1.41966726,10.0773026 0,12.6825658 0,14.9259868 C0,19.2861842 5.44242513,21.8914474 10.8252379,21.8914474 C17.8043478,21.8914474 22.4762228,17.7732321 22.4762228,14.5008224 C22.4762228,12.5016447 20.8203128,11.4093337 19.3410326,10.9253702 C18.9877717,10.8032482 18.7515284,10.7444492 18.9281588,10.2582237 C19.0451769,9.96875 19.2173913,9.41694079 19.2173913,8.68421053 C19.2173913,7.85197368 18.6521739,7.13055084 17.5217391,7.00164474 C16.9609378,6.93832237 14.6956522,6.94736842 13.1920857,7.59189953 C13.1920857,7.59189953 12.3619227,7.95826495 12.598166,7.29111842 C13.0132476,5.95908732 12.9536347,4.86677632 12.3023098,4.26069079 C11.9490489,3.89658732 11.4456522,3.720189 10.8384849,3.70888158 Z M10.3505435,10.3826071 C14.7618889,10.3826071 18.3364469,12.6870891 18.3364469,15.5320724 C18.3364469,18.3747943 14.7618889,20.6792763 10.3505435,20.6792763 C5.94140639,20.6792763 2.36684783,18.3747943 2.36684783,15.5320724 C2.36684783,12.6870891 5.94140639,10.3826071 10.3505435,10.3826071 Z M9.75883152,11.5925167 C8.05214009,11.6060855 6.39402174,12.5627057 5.674253,14.0372123 C4.78668478,15.9120066 5.61464009,17.9722452 7.74303683,18.6371298 C9.87143357,19.3630759 12.4127041,18.2730263 13.3002717,16.2761101 C14.1856317,14.3402548 13.0640284,12.2822781 10.9356317,11.7395149 C10.5470447,11.6354851 10.1518345,11.5902548 9.75883152,11.5925167 Z M10.639776,14.0394737 C10.9665423,14.0394737 11.2314879,14.3085939 11.2314879,14.6432978 C11.2314879,14.9780018 10.9665423,15.2493834 10.639776,15.2493834 C10.3130097,15.2493834 10.048064,14.9780018 10.048064,14.6432978 C10.048064,14.3085939 10.3130097,14.0394737 10.639776,14.0394737 Z M8.14928683,14.6432978 C8.33474878,14.6455592 8.52021074,14.6749587 8.69463343,14.7360197 C9.451936,14.9825245 9.68376387,15.7175167 9.21790096,16.3303864 C8.81165096,16.9432566 7.88213343,17.248561 7.18223491,16.9432566 C6.486753,16.6379522 6.3123303,15.9006992 6.7185803,15.3511513 C7.02326752,14.8898026 7.59069322,14.6365132 8.14928683,14.6432978 Z" fill-rule="nonzero"></path>
            </g>
        </g>
    </g>
</svg>