<?xml version="1.0" encoding="UTF-8"?>
<svg width="32px" height="32px" viewBox="0 0 32 32" version="1.1" xmlns="http://www.w3.org/2000/svg" xmlns:xlink="http://www.w3.org/1999/xlink">
    <!-- Generator: Sketch 51.3 (57544) - http://www.bohemiancoding.com/sketch -->
    <title>social_media_facebook</title>
    <desc>Created with Sketch.</desc>
    <defs></defs>
    <g id="Page-1" stroke="none" stroke-width="1" fill="none" fill-rule="evenodd">
        <g id="social_media_facebook" fill="#FFFFFF" fill-rule="nonzero">
            <path d="M16,0 C24.836556,5.41083001e-16 32,7.163444 32,16 C32,24.836556 24.836556,32 16,32 C7.163444,32 1.082166e-15,24.836556 0,16 C-1.082166e-15,7.163444 7.163444,1.623249e-15 16,0 Z M21.6521739,5 C21.2128056,5 20.7888925,5.04523026 20.3804348,5.11986005 C20.0735393,5.17413637 19.8682065,5.47491805 19.9211957,5.78926795 C19.9741848,6.10587979 20.2678327,6.31620095 20.5747283,6.26192463 C20.9324052,6.19634032 21.2900815,6.15789474 21.6521739,6.15789474 C25.0920519,6.15789474 27.8695652,9.00287858 27.8695652,12.5263158 C27.8695652,13.2884456 27.7326769,14.0166531 27.4898098,14.6996298 C27.4147421,14.8963816 27.4478599,15.1180102 27.578125,15.2808391 C27.7105978,15.4436681 27.9159306,15.5205592 28.1190556,15.4821136 C28.3221806,15.4436681 28.4877717,15.2944079 28.5518001,15.0953947 C28.8366171,14.2948194 29,13.4331824 29,12.5263158 C29,8.376439 25.7036347,5 21.6521739,5 Z M21.6521739,8.47368421 C21.4115151,8.47368421 21.1841033,8.498561 20.9677313,8.53700658 C20.6608357,8.59354426 20.4532947,8.892064 20.5084921,9.20867584 C20.5614813,9.52302632 20.8551292,9.73334689 21.1620247,9.67907058 C21.3276153,9.64967105 21.4909988,9.63157895 21.6521739,9.63157895 C23.2197693,9.63157895 24.4782609,10.9206417 24.4782609,12.5263158 C24.4782609,12.8723272 24.4164402,13.2025084 24.3038382,13.5145969 C24.1978599,13.8153786 24.3502041,14.1478206 24.643852,14.2563732 C24.9375,14.3649258 25.2620586,14.2111429 25.3680368,13.9103618 C25.5203804,13.4806746 25.6086957,13.0148026 25.6086957,12.5263158 C25.6086957,10.2942022 23.831352,8.47368421 21.6521739,8.47368421 Z M13.8384849,8.70888158 C12.0236075,8.67269737 9.28583574,10.1404193 6.846128,12.5918995 C4.41966726,15.0773026 3,17.6825658 3,19.9259868 C3,24.2861842 8.44242513,26.8914474 13.8252379,26.8914474 C20.8043478,26.8914474 25.4762228,22.7732321 25.4762228,19.5008224 C25.4762228,17.5016447 23.8203128,16.4093337 22.3410326,15.9253702 C21.9877717,15.8032482 21.7515284,15.7444492 21.9281588,15.2582237 C22.0451769,14.96875 22.2173913,14.4169408 22.2173913,13.6842105 C22.2173913,12.8519737 21.6521739,12.1305508 20.5217391,12.0016447 C19.9609378,11.9383224 17.6956522,11.9473684 16.1920857,12.5918995 C16.1920857,12.5918995 15.3619227,12.9582649 15.598166,12.2911184 C16.0132476,10.9590873 15.9536347,9.86677632 15.3023098,9.26069079 C14.9490489,8.89658732 14.4456522,8.720189 13.8384849,8.70888158 Z M13.3505435,15.3826071 C17.7618889,15.3826071 21.3364469,17.6870891 21.3364469,20.5320724 C21.3364469,23.3747943 17.7618889,25.6792763 13.3505435,25.6792763 C8.94140639,25.6792763 5.36684783,23.3747943 5.36684783,20.5320724 C5.36684783,17.6870891 8.94140639,15.3826071 13.3505435,15.3826071 Z M12.7588315,16.5925167 C11.0521401,16.6060855 9.39402174,17.5627057 8.674253,19.0372123 C7.78668478,20.9120066 8.61464009,22.9722452 10.7430368,23.6371298 C12.8714336,24.3630759 15.4127041,23.2730263 16.3002717,21.2761101 C17.1856317,19.3402548 16.0640284,17.2822781 13.9356317,16.7395149 C13.5470447,16.6354851 13.1518345,16.5902548 12.7588315,16.5925167 Z M13.639776,19.0394737 C13.9665423,19.0394737 14.2314879,19.3085939 14.2314879,19.6432978 C14.2314879,19.9780018 13.9665423,20.2493834 13.639776,20.2493834 C13.3130097,20.2493834 13.048064,19.9780018 13.048064,19.6432978 C13.048064,19.3085939 13.3130097,19.0394737 13.639776,19.0394737 Z M11.1492868,19.6432978 C11.3347488,19.6455592 11.5202107,19.6749587 11.6946334,19.7360197 C12.451936,19.9825245 12.6837639,20.7175167 12.217901,21.3303864 C11.811651,21.9432566 10.8821334,22.248561 10.1822349,21.9432566 C9.486753,21.6379522 9.3123303,20.9006992 9.7185803,20.3511513 C10.0232675,19.8898026 10.5906932,19.6365132 11.1492868,19.6432978 Z" id="Shape"></path>
        </g>
    </g>
</svg>