<?xml version="1.0" encoding="UTF-8"?>
<svg width="32px" height="32px" viewBox="0 0 32 32" version="1.1" xmlns="http://www.w3.org/2000/svg" xmlns:xlink="http://www.w3.org/1999/xlink">
    <!-- Generator: Sketch 51.3 (57544) - http://www.bohemiancoding.com/sketch -->
    <title>social_media_facebook</title>
    <desc>Created with Sketch.</desc>
    <defs></defs>
    <g id="Page-1" stroke="none" stroke-width="1" fill="none" fill-rule="evenodd">
        <g id="social_media_facebook" fill="#FFFFFF">
            <path d="M16,8.8817842e-16 C24.836556,1.42926142e-15 32,7.163444 32,16 C32,24.836556 24.836556,32 16,32 C7.163444,32 1.082166e-15,24.836556 0,16 C-1.082166e-15,7.163444 7.163444,2.51142742e-15 16,8.8817842e-16 Z M25.502,23.525 C27.026,22.42 28,20.787 28,18.971 C28,15.645 24.763,12.948 20.771,12.948 C16.779,12.948 13.542,15.645 13.542,18.971 C13.542,22.298 16.779,24.995 20.771,24.995 C21.596,24.995 22.392,24.878 23.131,24.665 L23.343,24.633 C23.482,24.633 23.608,24.676 23.727,24.744 L25.31,25.658 L25.449,25.703 C25.582,25.703 25.69,25.595 25.69,25.462 L25.651,25.286 L25.325,24.071 L25.3,23.917 C25.3,23.755 25.38,23.612 25.502,23.525 Z M12.675,6.297 C7.884,6.297 4,9.533 4,13.526 C4,15.704 5.168,17.665 6.997,18.99 C7.144,19.094 7.24,19.266 7.24,19.461 L7.21,19.645 L6.819,21.103 L6.772,21.314 C6.772,21.474 6.902,21.604 7.061,21.604 L7.229,21.55 L9.128,20.453 C9.27,20.371 9.421,20.32 9.588,20.32 L9.843,20.358 C10.729,20.613 11.685,20.755 12.675,20.755 L13.151,20.743 C12.963,20.179 12.86,19.585 12.86,18.972 C12.86,15.331 16.402,12.379 20.771,12.379 L21.242,12.391 C20.589,8.938 17.002,6.297 12.675,6.297 Z M18.361,18.008 C17.829,18.008 17.398,17.576 17.398,17.044 C17.398,16.511 17.829,16.08 18.361,16.08 C18.894,16.08 19.325,16.511 19.325,17.044 C19.325,17.576 18.894,18.008 18.361,18.008 Z M23.181,18.008 C22.648,18.008 22.217,17.576 22.217,17.044 C22.217,16.511 22.648,16.08 23.181,16.08 C23.713,16.08 24.144,16.511 24.144,17.044 C24.144,17.576 23.713,18.008 23.181,18.008 Z M9.783,12.369 C9.144,12.369 8.627,11.851 8.627,11.213 C8.627,10.574 9.144,10.056 9.783,10.056 C10.422,10.056 10.94,10.574 10.94,11.213 C10.94,11.851 10.422,12.369 9.783,12.369 Z M15.566,12.369 C14.927,12.369 14.41,11.851 14.41,11.213 C14.41,10.574 14.927,10.056 15.566,10.056 C16.205,10.056 16.723,10.574 16.723,11.213 C16.723,11.851 16.205,12.369 15.566,12.369 Z" id="Shape"></path>
        </g>
    </g>
</svg>