<svg width="32" height="32" xmlns="http://www.w3.org/2000/svg"><path d="M16 0a16 16 0 1 1 0 32 16 16 0 0 1 0-32zm5.5 13.98h-4.96c-.2 0-.28.05-.28.27V18c0 .2.05.24.25.24h5.55c.18 0 .24.02.19.21a4.9 4.9 0 0 1-2.84 3.4 7.17 7.17 0 0 1-4.52.49 6.4 6.4 0 0 1-4.06-2.64 6.24 6.24 0 0 1-1.07-4.93 6.18 6.18 0 0 1 2.2-3.72 6.58 6.58 0 0 1 4.72-1.53c1.35.07 2.55.53 3.61 1.34.1.07.15.06.23-.02l3.05-2.99c.06-.06.12-.1.01-.2a11.47 11.47 0 0 0-8.95-2.53 11.15 11.15 0 0 0-7.9 5.04 10.8 10.8 0 0 0 1.44 13.46 11.44 11.44 0 0 0 9.92 3.21c1.82-.27 3.46-.97 4.91-2.1a9.95 9.95 0 0 0 3.32-4.6 12.02 12.02 0 0 0 .48-5.93c-.03-.16-.1-.23-.3-.23h-5z" fill="#FFF" fill-rule="nonzero"/></svg>