<?xml version="1.0" encoding="UTF-8"?>
<svg width="32px" height="32px" viewBox="0 0 32 32" version="1.1" xmlns="http://www.w3.org/2000/svg" xmlns:xlink="http://www.w3.org/1999/xlink">
    <!-- Generator: Sketch 51.3 (57544) - http://www.bohemiancoding.com/sketch -->
    <title>social_media_twitter-2</title>
    <desc>Created with Sketch.</desc>
    <defs></defs>
    <g id="social_media_twitter-2" stroke="none" stroke-width="1" fill="none" fill-rule="evenodd">
        <g transform="translate(7.000000, 8.000000)" fill="#FFFFFF" fill-rule="nonzero" id="Shape">
            <path d="M11.23,0.89 C9.66206912,1.42263417 8.64300058,2.93691273 8.74,4.59 L8.78,5.22 L8.15,5.14 C5.83,4.84 3.81,3.84 2.09,2.16 L1.25,1.32 L1.04,1.94 C0.569314124,3.25454851 0.874383782,4.72197219 1.83,5.74 C2.33,6.29 2.22,6.37 1.34,6.04 C1.04,5.94 0.77,5.86 0.74,5.9 C0.66,6 0.96,7.16 1.2,7.63 C1.53,8.27 2.2,8.9 2.95,9.27 L3.57,9.57 L2.83,9.58 C2.12,9.58 2.09,9.59 2.17,9.87 C2.42,10.7 3.43,11.59 4.55,11.97 L5.34,12.25 L4.65,12.65 C3.63,13.25 2.44,13.58 1.24,13.61 C0.67,13.62 0.2,13.67 0.2,13.71 C0.2,13.84 1.75,14.56 2.65,14.84 C5.36,15.68 8.58,15.32 11,13.89 C12.8775007,12.6829503 14.3507258,10.9415494 15.23,8.89 C15.67,7.86 16.1,5.95 16.1,5.04 C16.1,4.44 16.14,4.37 16.85,3.66 C17.27,3.26 17.66,2.8 17.74,2.68 C17.87,2.43 17.85,2.43 17.21,2.65 C16.12,3.03 15.97,2.98 16.51,2.4 C16.91,2 17.37,1.25 17.37,1.03 C17.37,0.99 17.18,1.06 16.97,1.17 C16.74,1.3 16.23,1.49 15.84,1.61 L15.16,1.83 L14.53,1.4 C14.1936854,1.16816113 13.8311766,0.976837042 13.45,0.83 C12.71732,0.657125504 11.9522726,0.677802461 11.23,0.89 Z"></path>
        </g>
    </g>
</svg>