<?xml version="1.0" encoding="UTF-8"?>
<svg width="32px" height="32px" viewBox="0 0 32 32" version="1.1" xmlns="http://www.w3.org/2000/svg" xmlns:xlink="http://www.w3.org/1999/xlink">
    <!-- Generator: Sketch 51.3 (57544) - http://www.bohemiancoding.com/sketch -->
    <title>social_media_linked-in-2</title>
    <desc>Created with Sketch.</desc>
    <defs></defs>
    <g id="social_media_linked-in-2" stroke="none" stroke-width="1" fill="none" fill-rule="evenodd">
        <g transform="translate(7.000000, 7.000000)" fill="#FFFFFF" fill-rule="nonzero" id="Shape">
            <path d="M17.3,15.94 L17.3,9.8 C17.3,6.52 15.54,4.99 13.2,4.99 C11.8870433,4.93845093 10.6541114,5.62041641 10,6.76 L10,5.24 L6.43,5.24 C6.48,6.24 6.43,15.94 6.43,15.94 L10,15.94 L10,9.96 C10,9.64 10.03,9.32 10.12,9.1 C10.38,8.46 10.96,7.8 11.94,7.8 C13.24,7.8 13.74,8.78 13.74,10.22 L13.74,15.94 L17.3,15.94 Z M2.67,3.78 C3.92,3.78 4.69,2.95 4.69,1.93 C4.67,0.88 3.92,0.08 2.69,0.08 C1.49,0.08 0.69,0.88 0.69,1.93 C0.69,2.96 1.46,3.78 2.65,3.78 L2.68,3.78 L2.67,3.78 Z M4.45,15.94 L4.45,5.24 L0.91,5.24 L0.91,15.94 L4.46,15.94 L4.45,15.94 Z"></path>
        </g>
    </g>
</svg>