<?xml version="1.0" encoding="UTF-8"?>
<svg width="32px" height="32px" viewBox="0 0 32 32" version="1.1" xmlns="http://www.w3.org/2000/svg" xmlns:xlink="http://www.w3.org/1999/xlink">
    <!-- Generator: Sketch 51.3 (57544) - http://www.bohemiancoding.com/sketch -->
    <title>social_media_facebook-2</title>
    <desc>Created with Sketch.</desc>
    <defs></defs>
    <g id="social_media_facebook-2" stroke="none" stroke-width="1" fill="none" fill-rule="evenodd">
        <g id="WhatsApp_Logo" fill="#FFFFFF">
            <g id="WA_Logo">
                <g>
                    <path d="M27.3219048,4.67109005 C24.32,1.68341232 20.3352381,0.0379146919 16.0838095,0.0303317536 C7.32190476,0.0303317536 0.198095238,7.12796209 0.19047619,15.8407583 C0.19047619,18.6312796 0.921904762,21.3459716 2.30857143,23.749763 L0.0533333333,31.9469194 L8.48,29.7478673 C10.8038095,31.0066351 13.4171429,31.6739336 16.0761905,31.6739336 L16.0838095,31.6739336 C16.0838095,31.6739336 16.0838095,31.6739336 16.0838095,31.6739336 C24.8380952,31.6739336 31.9695238,24.5763033 31.9771429,15.8559242 C31.9771429,11.6322275 30.3238095,7.65876777 27.3219048,4.67109005 Z M16.0838095,29.0047393 C13.7066667,29.0047393 11.3828571,28.3677725 9.35619048,27.1696682 L8.87619048,26.8815166 L3.87809524,28.185782 L5.21142857,23.3327014 L4.89904762,22.8322275 C3.57333333,20.7393365 2.88,18.3203791 2.88,15.8407583 C2.88,8.59146919 8.80761905,2.69952607 16.0914286,2.69952607 C19.6190476,2.69952607 22.9333333,4.07203791 25.432381,6.55165877 C27.9238095,9.03886256 29.2952381,12.3374408 29.2952381,15.8483412 C29.287619,23.1052133 23.36,29.0047393 16.0838095,29.0047393 Z M23.3295238,19.1545024 C22.9333333,18.957346 20.9828571,18.0018957 20.6171429,17.8654028 C20.2514286,17.7364929 19.9847619,17.6682464 19.7257143,18.0625592 C19.4590476,18.456872 18.6971429,19.3516588 18.4685714,19.6094787 C18.24,19.8748815 18.0038095,19.9052133 17.607619,19.7080569 C17.2114286,19.5109005 15.9314286,19.0938389 14.4152381,17.7440758 C13.2342857,16.6976303 12.4419048,15.4009479 12.2057143,15.0066351 C11.9771429,14.6123223 12.1828571,14.4 12.3809524,14.2028436 C12.5561905,14.028436 12.7771429,13.7402844 12.9752381,13.5127962 C13.1733333,13.2853081 13.2419048,13.1184834 13.3714286,12.8530806 C13.5009524,12.5876777 13.44,12.3601896 13.3409524,12.1630332 C13.2419048,11.9658768 12.4495238,10.0170616 12.1142857,9.22843602 C11.7942857,8.4549763 11.4666667,8.56113744 11.2228571,8.5535545 C10.9942857,8.53838863 10.727619,8.53838863 10.4609524,8.53838863 C10.1942857,8.53838863 9.76761905,8.63696682 9.40190476,9.03127962 C9.03619048,9.42559242 8.0152381,10.3810427 8.0152381,12.3298578 C8.0152381,14.278673 9.44,16.1516588 9.63809524,16.4170616 C9.83619048,16.6824645 12.4342857,20.67109 16.4190476,22.3848341 C17.3638095,22.7943128 18.1028571,23.0369668 18.6819048,23.2189573 C19.6342857,23.5222749 20.4952381,23.4767773 21.1809524,23.3781991 C21.9428571,23.264455 23.527619,22.4227488 23.8628571,21.4976303 C24.1904762,20.5725118 24.1904762,19.7838863 24.0914286,19.6170616 C23.992381,19.450237 23.7257143,19.3516588 23.3295238,19.1545024 Z" id="Shape"></path>
                </g>
            </g>
        </g>
    </g>
</svg>